<?xml version="1.0" encoding="UTF-8"?>
<!DOCTYPE svg PUBLIC "-//W3C//DTD SVG 1.1//EN" "http://www.w3.org/Graphics/SVG/1.1/DTD/svg11.dtd">
<svg xmlns="http://www.w3.org/2000/svg" version="1.1" width="1024px" height="1024px" style="shape-rendering:geometricPrecision; text-rendering:geometricPrecision; image-rendering:optimizeQuality; fill-rule:evenodd; clip-rule:evenodd" xmlns:xlink="http://www.w3.org/1999/xlink">
<g><path style="opacity:1" fill="#000000" d="M 507.5,-0.5 C 510.5,-0.5 513.5,-0.5 516.5,-0.5C 659.698,83.6905 803.531,167.024 948,249.5C 948.667,250.167 948.667,250.833 948,251.5C 899.303,278.883 850.637,306.216 802,333.5C 709.604,280.719 617.438,227.553 525.5,174C 521.204,171.361 516.704,169.195 512,167.5C 416.448,222.028 320.948,276.694 225.5,331.5C 177.089,304.212 128.922,276.546 81,248.5C 80.3123,247.668 80.479,247.002 81.5,246.5C 205.337,174.747 329.337,103.247 453.5,32C 471.729,21.3923 489.729,10.559 507.5,-0.5 Z"/></g>
<g><path style="opacity:1" fill="#000000" d="M 510.5,195.5 C 599.388,245.28 687.721,296.114 775.5,348C 688.444,398.529 600.778,448.029 512.5,496.5C 425.048,447.274 338.048,397.274 251.5,346.5C 254.109,343.856 257.109,341.689 260.5,340C 344.06,292.059 427.393,243.892 510.5,195.5 Z"/></g>
<g><path style="opacity:1" fill="#000000" d="M 67.5,270.5 C 116.545,296.868 164.878,324.534 212.5,353.5C 213.165,405.626 213.498,457.793 213.5,510C 213.498,562.207 213.165,614.374 212.5,666.5C 164.415,694.293 116.248,721.96 68,749.5C 67.5,589.834 67.3333,430.167 67.5,270.5 Z"/></g>
<g><path style="opacity:1" fill="#000000" d="M 955.5,275.5 C 956.666,436.666 956.833,597.999 956,759.5C 907.335,731.003 859.002,702.003 811,672.5C 810.833,620.167 810.667,567.833 810.5,515.5C 810.337,462.418 810.837,409.418 812,356.5C 860.139,329.852 907.972,302.852 955.5,275.5 Z"/></g>
<g><path style="opacity:1" fill="#000000" d="M 238.5,368.5 C 325.428,418.245 412.261,468.245 499,518.5C 499.5,618.833 499.667,719.166 499.5,819.5C 412.194,770.427 325.36,720.427 239,669.5C 238.5,569.167 238.333,468.834 238.5,368.5 Z"/></g>
<g><path style="opacity:1" fill="#000000" d="M 784.5,371.5 C 785.666,470.666 785.832,569.999 785,669.5C 698.64,720.427 611.806,770.427 524.5,819.5C 524.169,719.126 524.502,618.793 525.5,518.5C 611.733,469.22 698.067,420.22 784.5,371.5 Z"/></g>
<g><path style="opacity:1" fill="#000000" d="M 516.5,1023.5 C 513.5,1023.5 510.5,1023.5 507.5,1023.5C 503.072,1020.11 498.406,1016.94 493.5,1014C 354.337,933.919 215.337,853.586 76.5,773C 125.151,745.093 173.985,717.593 223,690.5C 225.992,691.245 228.826,692.412 231.5,694C 324.78,748.295 418.28,802.128 512,855.5C 606.659,802.006 700.993,748.006 795,693.5C 804.013,697.925 812.847,702.758 821.5,708C 860.5,731.5 899.5,755 938.5,778.5C 801.16,858.505 663.494,938.005 525.5,1017C 522.079,1018.7 519.079,1020.87 516.5,1023.5 Z"/></g>
</svg>
